<mxfile host="app.diagrams.net" modified="2023-11-05T10:53:12.848Z" agent="Mozilla/5.0 (Macintosh; Intel Mac OS X 10_15_7) AppleWebKit/537.36 (KHTML, like Gecko) Chrome/118.0.0.0 Safari/537.36" etag="u2kcunxUjmRYLKU-D-1O" version="22.0.8" type="google">
  <diagram name="ページ1" id="vzQkFFJ61XkWbhYO3PDV">
    <mxGraphModel grid="1" page="1" gridSize="10" guides="1" tooltips="1" connect="1" arrows="1" fold="1" pageScale="1" pageWidth="1169" pageHeight="827" math="0" shadow="0">
      <root>
        <mxCell id="0" />
        <mxCell id="1" parent="0" />
        <mxCell id="z_bGwHd_6OMsOrJECzyn-67" value="" style="rounded=1;whiteSpace=wrap;html=1;strokeColor=#3399FF;" vertex="1" parent="1">
          <mxGeometry x="371" y="528" width="160" height="134" as="geometry" />
        </mxCell>
        <mxCell id="z_bGwHd_6OMsOrJECzyn-66" value="" style="rounded=1;whiteSpace=wrap;html=1;strokeColor=#3399FF;" vertex="1" parent="1">
          <mxGeometry x="540" y="172" width="530" height="200" as="geometry" />
        </mxCell>
        <mxCell id="z_bGwHd_6OMsOrJECzyn-65" value="" style="rounded=1;whiteSpace=wrap;html=1;strokeColor=#3399FF;" vertex="1" parent="1">
          <mxGeometry x="370" y="170" width="160" height="200" as="geometry" />
        </mxCell>
        <mxCell id="z_bGwHd_6OMsOrJECzyn-2" value="" style="edgeStyle=orthogonalEdgeStyle;rounded=0;orthogonalLoop=1;jettySize=auto;html=1;entryX=0;entryY=0.5;entryDx=0;entryDy=0;" edge="1" parent="1">
          <mxGeometry relative="1" as="geometry">
            <mxPoint x="389" y="272.0000000000002" as="targetPoint" />
            <mxPoint x="250" y="272" as="sourcePoint" />
          </mxGeometry>
        </mxCell>
        <mxCell id="gi2PvxMqB26ysi8tzB1R-29" value="login&lt;br&gt;password" style="rounded=0;whiteSpace=wrap;html=1;" vertex="1" parent="1">
          <mxGeometry x="179" y="247" width="70" height="50" as="geometry" />
        </mxCell>
        <mxCell id="gi2PvxMqB26ysi8tzB1R-30" value="&lt;font style=&quot;font-size: 11px;&quot;&gt;リクエストパラメータ&lt;/font&gt;" style="text;html=1;align=center;verticalAlign=middle;resizable=0;points=[];autosize=1;strokeColor=none;fillColor=none;" vertex="1" parent="1">
          <mxGeometry x="150" y="217" width="130" height="30" as="geometry" />
        </mxCell>
        <mxCell id="z_bGwHd_6OMsOrJECzyn-17" value="" style="edgeStyle=orthogonalEdgeStyle;rounded=0;orthogonalLoop=1;jettySize=auto;html=1;exitX=1;exitY=0.25;exitDx=0;exitDy=0;entryX=0;entryY=0.25;entryDx=0;entryDy=0;" edge="1" parent="1">
          <mxGeometry relative="1" as="geometry">
            <mxPoint x="659.9999999999995" y="251.00000000000023" as="targetPoint" />
            <mxPoint x="510.00000000000045" y="251.00000000000023" as="sourcePoint" />
          </mxGeometry>
        </mxCell>
        <mxCell id="z_bGwHd_6OMsOrJECzyn-18" value="生成・実行" style="edgeLabel;html=1;align=center;verticalAlign=middle;resizable=0;points=[];" connectable="0" vertex="1" parent="z_bGwHd_6OMsOrJECzyn-17">
          <mxGeometry x="0.1908" y="-3" relative="1" as="geometry">
            <mxPoint x="-14" y="-4" as="offset" />
          </mxGeometry>
        </mxCell>
        <mxCell id="z_bGwHd_6OMsOrJECzyn-44" value="" style="edgeStyle=orthogonalEdgeStyle;rounded=0;orthogonalLoop=1;jettySize=auto;html=1;entryX=0.5;entryY=0;entryDx=0;entryDy=0;" edge="1" parent="1" source="z_bGwHd_6OMsOrJECzyn-1" target="z_bGwHd_6OMsOrJECzyn-43">
          <mxGeometry relative="1" as="geometry">
            <mxPoint x="450" y="400" as="targetPoint" />
          </mxGeometry>
        </mxCell>
        <mxCell id="z_bGwHd_6OMsOrJECzyn-45" value="フォワード" style="edgeLabel;html=1;align=center;verticalAlign=middle;resizable=0;points=[];" connectable="0" vertex="1" parent="z_bGwHd_6OMsOrJECzyn-44">
          <mxGeometry x="-0.1378" y="1" relative="1" as="geometry">
            <mxPoint as="offset" />
          </mxGeometry>
        </mxCell>
        <mxCell id="z_bGwHd_6OMsOrJECzyn-1" value="FrontController" style="rounded=1;whiteSpace=wrap;html=1;" vertex="1" parent="1">
          <mxGeometry x="390" y="224" width="120" height="96" as="geometry" />
        </mxCell>
        <mxCell id="z_bGwHd_6OMsOrJECzyn-7" value="" style="edgeStyle=orthogonalEdgeStyle;rounded=0;orthogonalLoop=1;jettySize=auto;html=1;" edge="1" parent="1">
          <mxGeometry relative="1" as="geometry">
            <mxPoint x="550" y="290" as="sourcePoint" />
            <mxPoint x="510" y="290" as="targetPoint" />
          </mxGeometry>
        </mxCell>
        <mxCell id="z_bGwHd_6OMsOrJECzyn-8" value="MemberDAO.java&lt;br&gt;search()" style="rounded=1;whiteSpace=wrap;html=1;" vertex="1" parent="1">
          <mxGeometry x="930" y="224" width="120" height="96" as="geometry" />
        </mxCell>
        <mxCell id="z_bGwHd_6OMsOrJECzyn-23" value="" style="edgeStyle=orthogonalEdgeStyle;rounded=0;orthogonalLoop=1;jettySize=auto;html=1;exitX=-0.013;exitY=0.701;exitDx=0;exitDy=0;exitPerimeter=0;" edge="1" parent="1" source="z_bGwHd_6OMsOrJECzyn-5" target="z_bGwHd_6OMsOrJECzyn-13">
          <mxGeometry relative="1" as="geometry">
            <mxPoint x="658.44" y="290.2960000000003" as="sourcePoint" />
            <mxPoint x="620.9999999999995" y="290.0000000000002" as="targetPoint" />
          </mxGeometry>
        </mxCell>
        <mxCell id="z_bGwHd_6OMsOrJECzyn-42" value="" style="edgeStyle=orthogonalEdgeStyle;rounded=0;orthogonalLoop=1;jettySize=auto;html=1;entryX=0.488;entryY=-0.046;entryDx=0;entryDy=0;entryPerimeter=0;" edge="1" parent="1" source="z_bGwHd_6OMsOrJECzyn-5" target="gi2PvxMqB26ysi8tzB1R-98">
          <mxGeometry relative="1" as="geometry" />
        </mxCell>
        <mxCell id="z_bGwHd_6OMsOrJECzyn-49" value="格納" style="edgeLabel;html=1;align=center;verticalAlign=middle;resizable=0;points=[];" connectable="0" vertex="1" parent="z_bGwHd_6OMsOrJECzyn-42">
          <mxGeometry x="-0.1378" relative="1" as="geometry">
            <mxPoint as="offset" />
          </mxGeometry>
        </mxCell>
        <mxCell id="z_bGwHd_6OMsOrJECzyn-5" value="LoginAction&lt;br&gt;execute()" style="rounded=1;whiteSpace=wrap;html=1;" vertex="1" parent="1">
          <mxGeometry x="660" y="224" width="120" height="96" as="geometry" />
        </mxCell>
        <mxCell id="z_bGwHd_6OMsOrJECzyn-10" value="Servlet" style="text;html=1;align=center;verticalAlign=middle;resizable=0;points=[];autosize=1;strokeColor=none;fillColor=none;" vertex="1" parent="1">
          <mxGeometry x="420" y="196" width="60" height="30" as="geometry" />
        </mxCell>
        <mxCell id="z_bGwHd_6OMsOrJECzyn-11" value="BO" style="text;html=1;align=center;verticalAlign=middle;resizable=0;points=[];autosize=1;strokeColor=none;fillColor=none;" vertex="1" parent="1">
          <mxGeometry x="702" y="196" width="40" height="30" as="geometry" />
        </mxCell>
        <mxCell id="z_bGwHd_6OMsOrJECzyn-12" value="DAO" style="text;html=1;align=center;verticalAlign=middle;resizable=0;points=[];autosize=1;strokeColor=none;fillColor=none;" vertex="1" parent="1">
          <mxGeometry x="965" y="197" width="50" height="30" as="geometry" />
        </mxCell>
        <mxCell id="z_bGwHd_6OMsOrJECzyn-13" value="String" style="rounded=1;whiteSpace=wrap;html=1;arcSize=18;" vertex="1" parent="1">
          <mxGeometry x="550" y="276" width="71" height="30" as="geometry" />
        </mxCell>
        <mxCell id="z_bGwHd_6OMsOrJECzyn-27" value="" style="edgeStyle=orthogonalEdgeStyle;rounded=0;orthogonalLoop=1;jettySize=auto;html=1;" edge="1" parent="1">
          <mxGeometry relative="1" as="geometry">
            <mxPoint x="820" y="290" as="sourcePoint" />
            <mxPoint x="780" y="290" as="targetPoint" />
          </mxGeometry>
        </mxCell>
        <mxCell id="z_bGwHd_6OMsOrJECzyn-28" value="" style="edgeStyle=orthogonalEdgeStyle;rounded=0;orthogonalLoop=1;jettySize=auto;html=1;exitX=-0.013;exitY=0.701;exitDx=0;exitDy=0;exitPerimeter=0;" edge="1" parent="1">
          <mxGeometry relative="1" as="geometry">
            <mxPoint x="928.44" y="290.2960000000003" as="sourcePoint" />
            <mxPoint x="890.9999999999995" y="290.0000000000002" as="targetPoint" />
          </mxGeometry>
        </mxCell>
        <mxCell id="z_bGwHd_6OMsOrJECzyn-29" value="MemberSearchDAO&lt;br&gt;search()" style="rounded=1;whiteSpace=wrap;html=1;" vertex="1" parent="1">
          <mxGeometry x="930" y="224" width="120" height="96" as="geometry" />
        </mxCell>
        <mxCell id="z_bGwHd_6OMsOrJECzyn-31" value="String" style="rounded=1;whiteSpace=wrap;html=1;arcSize=18;" vertex="1" parent="1">
          <mxGeometry x="820" y="276" width="71" height="30" as="geometry" />
        </mxCell>
        <mxCell id="z_bGwHd_6OMsOrJECzyn-35" value="" style="edgeStyle=orthogonalEdgeStyle;rounded=0;orthogonalLoop=1;jettySize=auto;html=1;entryX=0;entryY=0.26;entryDx=0;entryDy=0;entryPerimeter=0;exitX=1;exitY=0.25;exitDx=0;exitDy=0;" edge="1" parent="1" source="z_bGwHd_6OMsOrJECzyn-5" target="z_bGwHd_6OMsOrJECzyn-29">
          <mxGeometry relative="1" as="geometry">
            <mxPoint x="891" y="248.99999999999977" as="sourcePoint" />
          </mxGeometry>
        </mxCell>
        <mxCell id="z_bGwHd_6OMsOrJECzyn-40" value="生成・実行" style="edgeLabel;html=1;align=center;verticalAlign=middle;resizable=0;points=[];" connectable="0" vertex="1" parent="z_bGwHd_6OMsOrJECzyn-35">
          <mxGeometry x="0.0109" relative="1" as="geometry">
            <mxPoint as="offset" />
          </mxGeometry>
        </mxCell>
        <mxCell id="z_bGwHd_6OMsOrJECzyn-38" value="" style="endArrow=none;html=1;rounded=0;entryX=0;entryY=0.5;entryDx=0;entryDy=0;" edge="1" parent="1" target="gi2PvxMqB26ysi8tzB1R-29">
          <mxGeometry width="50" height="50" relative="1" as="geometry">
            <mxPoint x="120" y="272" as="sourcePoint" />
            <mxPoint x="145" y="271.78" as="targetPoint" />
          </mxGeometry>
        </mxCell>
        <mxCell id="z_bGwHd_6OMsOrJECzyn-52" value="" style="edgeStyle=orthogonalEdgeStyle;rounded=0;orthogonalLoop=1;jettySize=auto;html=1;entryX=1;entryY=0.5;entryDx=0;entryDy=0;" edge="1" parent="1" source="z_bGwHd_6OMsOrJECzyn-43" target="z_bGwHd_6OMsOrJECzyn-50">
          <mxGeometry relative="1" as="geometry">
            <mxPoint x="310" y="596" as="targetPoint" />
          </mxGeometry>
        </mxCell>
        <mxCell id="z_bGwHd_6OMsOrJECzyn-53" value="レスポンス" style="edgeLabel;html=1;align=center;verticalAlign=middle;resizable=0;points=[];" connectable="0" vertex="1" parent="z_bGwHd_6OMsOrJECzyn-52">
          <mxGeometry x="-0.1518" y="1" relative="1" as="geometry">
            <mxPoint as="offset" />
          </mxGeometry>
        </mxCell>
        <mxCell id="z_bGwHd_6OMsOrJECzyn-43" value="login-out.jsp" style="rounded=1;whiteSpace=wrap;html=1;arcSize=50;" vertex="1" parent="1">
          <mxGeometry x="390" y="581" width="120" height="30" as="geometry" />
        </mxCell>
        <mxCell id="z_bGwHd_6OMsOrJECzyn-46" value="" style="edgeStyle=orthogonalEdgeStyle;rounded=0;orthogonalLoop=1;jettySize=auto;html=1;entryX=1;entryY=0.5;entryDx=0;entryDy=0;" edge="1" parent="1" target="z_bGwHd_6OMsOrJECzyn-43">
          <mxGeometry relative="1" as="geometry">
            <mxPoint x="578.5" y="596" as="targetPoint" />
            <mxPoint x="658.5000000000005" y="596" as="sourcePoint" />
          </mxGeometry>
        </mxCell>
        <mxCell id="z_bGwHd_6OMsOrJECzyn-47" value="取得" style="edgeLabel;html=1;align=center;verticalAlign=middle;resizable=0;points=[];" connectable="0" vertex="1" parent="z_bGwHd_6OMsOrJECzyn-46">
          <mxGeometry x="-0.0085" relative="1" as="geometry">
            <mxPoint as="offset" />
          </mxGeometry>
        </mxCell>
        <mxCell id="z_bGwHd_6OMsOrJECzyn-50" value="&lt;div style=&quot;&quot;&gt;&lt;span style=&quot;font-weight: normal; background-color: initial;&quot;&gt;&lt;font style=&quot;font-size: 10px;&quot;&gt;みかん山白岩&lt;/font&gt;&lt;/span&gt;&lt;/div&gt;" style="swimlane;whiteSpace=wrap;html=1;align=left;" vertex="1" parent="1">
          <mxGeometry x="120" y="530" width="180" height="132" as="geometry" />
        </mxCell>
        <mxCell id="z_bGwHd_6OMsOrJECzyn-51" value="&lt;font style=&quot;font-size: 10px;&quot;&gt;こんにちは、○○さん。&lt;/font&gt;" style="text;html=1;align=center;verticalAlign=middle;resizable=0;points=[];autosize=1;strokeColor=none;fillColor=none;" vertex="1" parent="z_bGwHd_6OMsOrJECzyn-50">
          <mxGeometry x="27" y="51" width="130" height="30" as="geometry" />
        </mxCell>
        <mxCell id="z_bGwHd_6OMsOrJECzyn-63" value="" style="endArrow=classic;startArrow=classic;html=1;rounded=0;exitX=0.5;exitY=1;exitDx=0;exitDy=0;entryX=0.5;entryY=0;entryDx=0;entryDy=0;entryPerimeter=0;" edge="1" parent="1" source="z_bGwHd_6OMsOrJECzyn-29" target="z_bGwHd_6OMsOrJECzyn-57">
          <mxGeometry width="50" height="50" relative="1" as="geometry">
            <mxPoint x="990" y="380" as="sourcePoint" />
            <mxPoint x="990" y="430" as="targetPoint" />
          </mxGeometry>
        </mxCell>
        <mxCell id="gi2PvxMqB26ysi8tzB1R-98" value="&lt;font style=&quot;font-size: 11px;&quot;&gt;セッションスコープ&lt;/font&gt;" style="text;html=1;align=center;verticalAlign=middle;resizable=0;points=[];autosize=1;strokeColor=none;fillColor=none;" vertex="1" parent="1">
          <mxGeometry x="661" y="517" width="120" height="30" as="geometry" />
        </mxCell>
        <mxCell id="z_bGwHd_6OMsOrJECzyn-64" value="” Member ”" style="rounded=1;whiteSpace=wrap;html=1;" vertex="1" parent="1">
          <mxGeometry x="659" y="548" width="120" height="96" as="geometry" />
        </mxCell>
        <mxCell id="z_bGwHd_6OMsOrJECzyn-57" value="" style="shape=cylinder3;whiteSpace=wrap;html=1;boundedLbl=1;backgroundOutline=1;size=8.594919840494725;" vertex="1" parent="1">
          <mxGeometry x="927" y="533" width="125.5" height="110" as="geometry" />
        </mxCell>
        <mxCell id="z_bGwHd_6OMsOrJECzyn-59" value="MEMBER&lt;br&gt;テーブル" style="text;html=1;align=center;verticalAlign=middle;resizable=0;points=[];autosize=1;strokeColor=none;fillColor=none;" vertex="1" parent="1">
          <mxGeometry x="951" y="571" width="80" height="40" as="geometry" />
        </mxCell>
        <mxCell id="z_bGwHd_6OMsOrJECzyn-68" value="&lt;font color=&quot;#3399ff&quot;&gt;&lt;span style=&quot;font-size: 18px;&quot;&gt;C&lt;br&gt;&lt;/span&gt;&lt;/font&gt;" style="text;html=1;align=center;verticalAlign=middle;resizable=0;points=[];autosize=1;strokeColor=none;fillColor=none;" vertex="1" parent="1">
          <mxGeometry x="371" y="134" width="40" height="40" as="geometry" />
        </mxCell>
        <mxCell id="z_bGwHd_6OMsOrJECzyn-69" value="&lt;font color=&quot;#3399ff&quot;&gt;&lt;span style=&quot;font-size: 18px;&quot;&gt;M&lt;/span&gt;&lt;/font&gt;" style="text;html=1;align=center;verticalAlign=middle;resizable=0;points=[];autosize=1;strokeColor=none;fillColor=none;" vertex="1" parent="1">
          <mxGeometry x="543" y="136" width="40" height="40" as="geometry" />
        </mxCell>
        <mxCell id="z_bGwHd_6OMsOrJECzyn-70" value="&lt;font color=&quot;#3399ff&quot;&gt;&lt;span style=&quot;font-size: 18px;&quot;&gt;V&lt;/span&gt;&lt;/font&gt;" style="text;html=1;align=center;verticalAlign=middle;resizable=0;points=[];autosize=1;strokeColor=none;fillColor=none;" vertex="1" parent="1">
          <mxGeometry x="367" y="493" width="40" height="40" as="geometry" />
        </mxCell>
        <mxCell id="1jdFeHsh780dLRkawK3Y-1" value="&lt;font style=&quot;font-size: 15px;&quot;&gt;ログイン機能の基本アーキテクチャ図&lt;/font&gt;" style="text;html=1;align=center;verticalAlign=middle;resizable=0;points=[];autosize=1;strokeColor=none;fillColor=none;" vertex="1" parent="1">
          <mxGeometry x="105" y="48" width="280" height="30" as="geometry" />
        </mxCell>
      </root>
    </mxGraphModel>
  </diagram>
</mxfile>
